<svg xmlns="http://www.w3.org/2000/svg" enable-background="new 0 0 49 49" viewBox="0 0 49 49"><path d="M26.9,26.4c0-1.2-1-2.2-2.2-2.2c-1.2,0-2.2,1-2.2,2.2c0,1.2,1,2.2,2.2,2.2C26,28.5,26.9,27.6,26.9,26.4z M23.9,26.4c0-0.5,0.4-0.8,0.8-0.8c0.5,0,0.8,0.4,0.8,0.8c0,0.5-0.4,0.8-0.8,0.8C24.3,27.2,23.9,26.8,23.9,26.4z"/><path d="M22.8,38.8c-0.1-0.4,0.2-0.8,0.6-0.9c0.4-0.1,0.8,0.2,0.9,0.6c0.3,1.6,1.8,2.8,3.4,2.8h0.7V30c-0.9,0.9-2.2,1.5-3.6,1.5c-2.8,0-5.1-2.3-5.1-5.1c0-1.4,0.6-2.7,1.5-3.6H7.9c-0.1,0.8-0.1,1.5-0.1,2.3c0,1.7,0.4,3.4,1.2,5l2.2,4.6c1.7,3.6,2.6,7.5,2.6,11.5v1.3c0,0.4,0.3,0.8,0.8,0.8h14.7c0.4,0,0.8-0.3,0.8-0.8V44c0-0.7,0.6-1.2,1.2-1.2h-3.5C25.3,42.8,23.3,41.1,22.8,38.8z"/><path d="M40.8,30.2l-2.6-3.8C38.1,26.2,38,26,38,25.8l-0.1-1.9c-0.2-3-1.3-5.9-3.1-8.3c-0.1-0.2-0.4-0.3-0.6-0.3h-1.1c0.3-0.8,0.5-1.7,0.5-2.6l0.5,0.5c0.1,0.1,0.3,0.2,0.5,0.2c0.2,0,0.4-0.1,0.5-0.2c0.3-0.3,0.3-0.8,0-1.1l-1.8-1.8c-0.3-0.3-0.8-0.3-1.1,0l-1.8,1.8c-0.3,0.3-0.3,0.8,0,1.1c0.3,0.3,0.8,0.3,1.1,0l0.5-0.5c-0.1,0.9-0.3,1.8-0.6,2.6h-20c-0.2,0-0.4,0.1-0.6,0.3c-1.3,1.7-2.2,3.6-2.7,5.7h16.7c2.8,0,5,2.2,5,5v15h1.2c0.4,0,0.8,0.3,0.8,0.8c0,0.4-0.3,0.8-0.8,0.8h3.2c1.5,0,2.7-1.2,2.7-2.7v-5.7c0-0.1,0.1-0.2,0.2-0.2h1.4c0.9,0,1.7-0.4,2.1-1.1C41.4,32.2,41.4,31.1,40.8,30.2z"/><path d="M27.2,6.8l-0.9,0.4C26.2,7.1,26.1,7.1,26,7l0.2-1c0-0.3-0.1-0.6-0.4-0.8c-0.4-0.2-0.9-0.4-1.4-0.5c-0.5-0.1-0.9-0.2-1.4-0.2c-0.3,0-0.6,0.2-0.7,0.5l-0.3,0.9c-0.1,0-0.2,0-0.4,0.1l-0.6-0.8c-0.2-0.3-0.5-0.4-0.9-0.3c-0.4,0.1-0.8,0.3-1.3,0.6c-0.5,0.3-0.9,0.6-1.2,0.9c-0.2,0.2-0.3,0.6-0.2,0.9l0.4,0.9c-0.1,0.1-0.1,0.2-0.2,0.3l-1-0.1c-0.3-0.1-0.6,0.1-0.8,0.4c-0.2,0.4-0.4,0.9-0.5,1.4c-0.1,0.5-0.2,1-0.2,1.4c0,0.3,0.2,0.6,0.5,0.7l0.9,0.3c0,0.1,0,0.2,0,0.4l-0.8,0.6c-0.1,0.1-0.2,0.2-0.2,0.3h14.1c0-0.1,0-0.1,0-0.2c0.1-0.5,0.2-0.9,0.2-1.4c0-0.3-0.2-0.6-0.5-0.7l-0.9-0.3c0-0.1,0-0.2,0-0.4l0.8-0.6c0.3-0.2,0.4-0.6,0.3-0.9c-0.3-0.9-0.9-1.8-1.5-2.4C27.8,6.7,27.5,6.6,27.2,6.8z M24.2,12.3c-0.2,0.9-1.1,1.5-2.1,1.2c-0.9-0.2-1.5-1.2-1.2-2.1c0.2-0.9,1.1-1.5,2.1-1.2C23.9,10.5,24.5,11.4,24.2,12.3z"/><path d="M11.7,13.6c0.1,0.1,0.3,0.2,0.5,0.2c0.2,0,0.4-0.1,0.5-0.2l1.8-1.8c0.3-0.3,0.3-0.8,0-1.1c-0.3-0.3-0.8-0.3-1.1,0L13,11.3c0.2-3.1,1.9-6,4.6-7.7c3-1.8,6.8-1.8,9.9,0c0.4,0.2,0.8,0.1,1-0.3s0.1-0.8-0.3-1c-3.5-2.1-7.9-2.1-11.4,0c-3.2,1.9-5.2,5.3-5.4,9L11,10.8c-0.3-0.3-0.8-0.3-1.1,0c-0.3,0.3-0.3,0.8,0,1.1L11.7,13.6z"/></svg>