<?xml version="1.0" ?><svg id="Icons" viewBox="0 0 48 48" xmlns="http://www.w3.org/2000/svg"><defs><style>.cls-1,.cls-4{fill:#656769;}.cls-1,.cls-10,.cls-11,.cls-2,.cls-3,.cls-9{stroke:#45413c;stroke-linecap:round;stroke-linejoin:round;}.cls-2{fill:none;}.cls-3{fill:#ffe500;}.cls-5{fill:#525252;}.cls-10,.cls-6{fill:#ffcebf;}.cls-7{fill:#ffb59e;}.cls-11,.cls-8{fill:#45413c;}.cls-8{opacity:0.15;}.cls-9{fill:#a86c4d;}.cls-12{fill:#ff6242;}.cls-13{fill:#ffa694;}</style></defs><title/><path class="cls-1" d="M23.55,17.33l-15-7.64a.5.5,0,0,1,0-.89l15-7.69a1,1,0,0,1,.92,0l15,7.69a.5.5,0,0,1,0,.89l-15,7.64A1,1,0,0,1,23.55,17.33Z" data-name="&lt;Path&gt;" id="_Path_"/><line class="cls-2" data-name="&lt;Path&gt;" id="_Path_2" x1="8.31" x2="8.31" y1="9.24" y2="17.19"/><path class="cls-3" d="M9.27,17.18a1,1,0,0,0-1-1.07,1,1,0,0,0-1,1.07l-.19,3.69H9.46Z" data-name="&lt;Path&gt;" id="_Path_3"/><path class="cls-4" d="M31.54,34.09,24,31.22l-7.54,2.87a6.76,6.76,0,0,0-4.35,6.31V45H35.89V40.4A6.76,6.76,0,0,0,31.54,34.09Z"/><path class="cls-5" d="M31.54,34.09,24,31.22l-7.54,2.87a6.76,6.76,0,0,0-4.35,6.31v3a6.76,6.76,0,0,1,4.35-6.31L24,34.21l7.54,2.87a6.76,6.76,0,0,1,4.35,6.31v-3A6.76,6.76,0,0,0,31.54,34.09Z"/><path class="cls-2" d="M31.54,34.09,24,31.22l-7.54,2.87a6.76,6.76,0,0,0-4.35,6.31V45H35.89V40.4A6.76,6.76,0,0,0,31.54,34.09Z"/><path class="cls-6" d="M24,35.11h0S21.46,34,21.46,32.57V29.72A2.54,2.54,0,0,1,24,27.17h0a2.54,2.54,0,0,1,2.54,2.55v2.85C26.54,34,24,35.11,24,35.11Z" data-name="&lt;Path&gt;" id="_Path_4"/><path class="cls-7" d="M24,27.17a2.54,2.54,0,0,0-2.54,2.54v.6a2.54,2.54,0,0,0,5.08,0v-.59A2.54,2.54,0,0,0,24,27.17Z" data-name="&lt;Path&gt;" id="_Path_5"/><path class="cls-2" d="M24,35.11h0S21.46,34,21.46,32.57V29.72A2.54,2.54,0,0,1,24,27.17h0a2.54,2.54,0,0,1,2.54,2.55v2.85C26.54,34,24,35.11,24,35.11Z" data-name="&lt;Path&gt;" id="_Path_6"/><line class="cls-2" data-name="&lt;Path&gt;" id="_Path_7" x1="13.45" x2="17.06" y1="36.35" y2="45"/><line class="cls-2" data-name="&lt;Path&gt;" id="_Path_8" x1="34.55" x2="30.94" y1="36.35" y2="45"/><line class="cls-2" data-name="&lt;Path&gt;" id="_Path_9" x1="20.54" x2="21.27" y1="40.48" y2="45"/><line class="cls-2" data-name="&lt;Path&gt;" id="_Path_10" x1="27.46" x2="26.73" y1="40.48" y2="45"/><ellipse class="cls-8" cx="24" cy="45.5" data-name="&lt;Ellipse&gt;" id="_Ellipse_" rx="15" ry="1.5"/><path class="cls-9" d="M24,6.91h0a9.82,9.82,0,0,1,9.82,9.82v5.14a0,0,0,0,1,0,0H14.18a0,0,0,0,1,0,0V16.73A9.82,9.82,0,0,1,24,6.91Z" data-name="&lt;Rectangle&gt;" id="_Rectangle_"/><path class="cls-10" d="M34.87,21.12a1.83,1.83,0,0,0-1.39-1.54l-.59-.16a2.06,2.06,0,0,1-1.5-2V15.38A1.88,1.88,0,0,0,30,13.57a15.34,15.34,0,0,1-6,1.09,15.34,15.34,0,0,1-6-1.09,1.88,1.88,0,0,0-1.4,1.81v2.06a2.06,2.06,0,0,1-1.5,2l-.59.16a1.83,1.83,0,0,0-1.39,1.54,1.81,1.81,0,0,0,1.81,2h.11a9,9,0,0,0,17.9,0h.11A1.81,1.81,0,0,0,34.87,21.12Z"/><path class="cls-11" d="M18.57,20.91a.77.77,0,1,0,.77-.77A.76.76,0,0,0,18.57,20.91Z" data-name="&lt;Path&gt;" id="_Path_11"/><path class="cls-11" d="M29.43,20.91a.77.77,0,1,1-.77-.77A.76.76,0,0,1,29.43,20.91Z" data-name="&lt;Path&gt;" id="_Path_12"/><g data-name="&lt;Group&gt;" id="_Group_"><g data-name="&lt;Group&gt;" id="_Group_2"><g data-name="&lt;Group&gt;" id="_Group_3"><g data-name="&lt;Group&gt;" id="_Group_4"><g data-name="&lt;Group&gt;" id="_Group_5"><g data-name="&lt;Group&gt;" id="_Group_6"><g data-name="&lt;Group&gt;" id="_Group_7"><path class="cls-12" d="M21.16,25.6a.44.44,0,0,0-.33.16.42.42,0,0,0-.1.35,3.32,3.32,0,0,0,6.54,0,.42.42,0,0,0-.1-.35.44.44,0,0,0-.33-.16Z" data-name="&lt;Path&gt;" id="_Path_13"/><path class="cls-13" d="M24,27a4,4,0,0,0-2.52.77,3.36,3.36,0,0,0,5,0A4,4,0,0,0,24,27Z" data-name="&lt;Path&gt;" id="_Path_14"/></g></g></g></g></g></g></g><g data-name="&lt;Group&gt;" id="_Group_8"><path class="cls-2" d="M21.16,25.6a.44.44,0,0,0-.33.16.42.42,0,0,0-.1.35,3.32,3.32,0,0,0,6.54,0,.42.42,0,0,0-.1-.35.44.44,0,0,0-.33-.16Z" data-name="&lt;Path&gt;" id="_Path_15"/></g><ellipse class="cls-7" cx="18.06" cy="24.19" data-name="&lt;Ellipse&gt;" id="_Ellipse_2" rx="1" ry="0.6"/><ellipse class="cls-7" cx="29.94" cy="24.19" data-name="&lt;Ellipse&gt;" id="_Ellipse_3" rx="1" ry="0.6"/><path class="cls-4" d="M14.68,9c0-1.22,3.9-2.21,9.32-2.21s9.32,1,9.32,2.21l1,8.59c0-1.28-4.61-2.32-10.3-2.32s-10.3,1-10.3,2.32Z" data-name="&lt;Path&gt;" id="_Path_16"/><path class="cls-5" d="M24,10.07c4.62,0,8.22.6,9.61,1.43L33.32,9c0-1.22-3.9-2.21-9.32-2.21s-9.32,1-9.32,2.21l-.29,2.53C15.78,10.67,19.38,10.07,24,10.07Z" data-name="&lt;Path&gt;" id="_Path_17"/><path class="cls-2" d="M14.68,9c0-1.22,3.9-2.21,9.32-2.21s9.32,1,9.32,2.21l1,8.59c0-1.28-4.61-2.32-10.3-2.32s-10.3,1-10.3,2.32Z" data-name="&lt;Path&gt;" id="_Path_18"/></svg>